<svg display="none" width="0" height="0" version="1.1" xmlns="http://www.w3.org/2000/svg" xmlns:xlink="http://www.w3.org/1999/xlink">
	<defs>
		<symbol id="icon-drag-left-right" viewBox="0 0 1344 1024">
			<title>drag-left-right</title>
			<path class="path1" d="M256 192v-160l-224 224 224 224v-160h256v-128z"></path>
			<path class="path2" d="M1088 192v-160l224 224-224 224v-160h-256v-128z"></path>
			<path class="path3" d="M1120.004 1024h-608c-11.036 0-21.29-5.684-27.136-15.040l-160-256c-9.172-14.68-5.014-33.988 9.386-43.586l96-64c13.608-9.074 31.864-6.422 42.334 6.134l103.416 124.108v-487.616c0-17.672 14.328-32 32-32h128c17.672 0 32 14.328 32 32v199.016l359.762 89.942c14.244 3.56 24.236 16.36 24.236 31.042v384c0 17.674-14.324 32-31.998 32v0zM529.74 960h558.264v-327.016l-64-16v183.016c0 17.674-14.326 32-32 32-17.676 0-32-14.326-32-32v-199.016l-64-16v151.016c0 17.674-14.326 32-32 32s-32-14.326-32-32v-167.016l-64-16v247.016c0 17.674-14.328 32-32 32s-32-14.326-32-32v-480h-64v544c0 13.472-8.44 25.502-21.108 30.088-12.666 4.594-26.85 0.746-35.474-9.602l-141.592-169.91-46.22 30.81 134.13 214.614z" fill="var(--fill,currentColor)"></path>
		</symbol>
	</defs>
</svg>
