<svg xmlns="http://www.w3.org/2000/svg" width="48" height="48" viewBox="0 0 48 48"><g fill="none" fill-rule="evenodd"><circle cx="24" cy="24" r="24" fill="color(display-p3 0.847 0.847 0.847)"/><path fill="color(display-p3 0.455 0.675 0.875)" d="M0 0h48v48H0z"/><path fill="color(display-p3 1.000 1.000 1.000)" d="M0 16h48v16H0z"/><g fill-rule="nonzero" transform="translate(17 17)"><path fill="color(display-p3 0.965 0.706 0.055)" d="M7 .056c.086 0 .086.128.086.128l.158 4.203a2 2 0 0 1-.102.2l.11.046.035.922.349-.76-.383-.162-.01-.246.072-.181c.178-.532.039-.922.295-1.552l.1-.22c.47-.918.197-1.18.312-1.637.115-.456.408-.615.48-.535.07.08-.21.175-.237.519s.219.96-.173 1.71c-.392.748-.055 1.449-.448 2.307l.047-.121L9.53.67s.031-.076.084-.09l.044.004c.079.033.03.151.03.151L8.223 4.681l-.17.143.085.086-.32.864.613-.568-.293-.296.085-.23.136-.14c.369-.424.389-.837.866-1.322l.178-.164c.786-.669.633-1.016.914-1.394.28-.378.612-.411.648-.31.035.1-.262.081-.417.389-.156.307-.166.97-.814 1.512-.65.542-.606 1.319-1.297 1.96l.096-.1L11.76 2.12s.058-.058.112-.05l.039.02c.06.06-.03.15-.03.15L9.02 5.326a2 2 0 0 1-.213.068l.046.112-.627.676.784-.291-.157-.385.167-.18.179-.078c.502-.25.678-.624 1.305-.889l.227-.084c.982-.317.974-.696 1.378-.938.404-.241.723-.146.717-.039s-.273-.024-.534.2-.524.834-1.331 1.086-1.064.986-1.948 1.315l.13-.057 4.122-1.528s.076-.032.123-.004l.028.034c.033.079-.086.128-.086.128L9.506 6.226a2 2 0 0 1-.222-.019l-.001.12-.837.386.835.03.002-.415.223-.102.196-.004c.56-.04.866-.317 1.547-.322l.241.01c1.028.082 1.167-.271 1.632-.34.465-.068.724.142.678.239-.047.096-.243-.127-.57-.02-.328.107-.804.57-1.646.494s-1.36.504-2.303.47l.138-.004 4.397.166s.082 0 .115.043l.013.042c0 .086-.128.086-.128.086l-4.203.158.181.071c.532.178.922.039 1.552.295l.22.1c.918.47 1.18.197 1.637.312.456.115.615.408.535.48-.08.07-.175-.21-.519-.237s-.96.219-1.71-.173c-.748-.392-1.449-.055-2.307-.448l.12.047L13.33 9.53s.076.031.09.084l-.004.044c-.033.079-.151.03-.151.03L9.32 8.224a2 2 0 0 1-.144-.17l-.086.085-.864-.321.568.613.296-.292.23.085.14.135c.424.369.837.389 1.322.866l.164.178c.669.786 1.016.633 1.394.914.378.28.411.612.31.648-.1.035-.081-.262-.389-.417-.307-.156-.97-.166-1.512-.814-.542-.65-1.319-.606-1.96-1.297l.1.096 2.991 3.226s.058.058.05.112l-.02.039c-.06.06-.15-.03-.15-.03L8.674 9.02a2 2 0 0 1-.068-.213l-.112.046-.677-.628.292.785.385-.157.18.167.078.179c.25.502.624.678.889 1.305l.084.227c.317.982.696.974.938 1.378.241.404.146.723.039.717s.024-.273-.2-.534-.834-.524-1.086-1.331-.986-1.064-1.315-1.948l.055.126 1.53 4.126s.032.076.004.123l-.034.028c-.079.033-.128-.086-.128-.086L7.774 9.505l.019-.22-.121-.002-.385-.838-.031.836.416.002.102.222.004.197c.04.56.317.866.322 1.547l-.01.241c-.082 1.028.271 1.167.34 1.632.068.465-.142.724-.239.678-.096-.047.127-.243.02-.57-.107-.328-.57-.804-.494-1.646s-.504-1.36-.47-2.303l.004.133-.166 4.402s0 .082-.043.115L7 13.944c-.086 0-.086-.128-.086-.128l-.158-4.203q.044-.096.102-.2l-.111-.046-.035-.921-.348.759.383.162.009.246-.071.181c-.178.532-.039.922-.295 1.552l-.1.22c-.47.918-.197 1.18-.312 1.637-.115.456-.408.615-.48.535-.07-.08.21-.175.237-.519s-.219-.96.173-1.71c.392-.748.055-1.449.448-2.307l-.05.128-1.836 4s-.031.076-.084.09l-.044-.004c-.079-.033-.03-.151-.03-.151L5.776 9.32q.077-.072.17-.144L5.86 9.09l.32-.864-.612.568.292.296-.085.23-.135.14c-.369.424-.389.837-.866 1.322l-.178.164c-.786.669-.633 1.016-.914 1.394-.28.378-.612.411-.648.31-.035-.1.262-.081.417-.389.156-.307.166-.97.814-1.512.65-.542.606-1.319 1.297-1.96l-.093.097L2.24 11.88s-.058.058-.112.05l-.039-.02c-.06-.06.03-.15.03-.15l2.86-3.085q.101-.038.214-.068l-.046-.112.627-.676-.784.29.157.386-.167.18-.179.078c-.502.25-.678.624-1.305.889l-.227.084c-.982.317-.974.696-1.378.938-.404.241-.723.146-.717.039s.273.024.534-.2.524-.834 1.331-1.086 1.064-.986 1.948-1.315l-.13.057L.735 9.687s-.076.032-.123.004l-.028-.034C.551 9.578.67 9.53.67 9.53l3.824-1.755q.105.003.222.019v-.121l.839-.385-.836-.031-.002.416-.223.102-.196.004c-.56.04-.866.317-1.547.322l-.241-.01c-1.028-.082-1.167.271-1.632.34C.413 8.498.154 8.288.2 8.19c.047-.096.243.127.57.02.328-.107.804-.57 1.646-.494s1.36-.504 2.303-.47l-.138.004-4.397-.166s-.082 0-.115-.043L.056 7c0-.086.128-.086.128-.086l4.203-.158q.096.044.2.102l.046-.111.92-.035-.758-.348-.162.383-.246.009-.181-.071c-.532-.178-.922-.039-1.552-.295l-.22-.1c-.918-.47-1.18-.197-1.637-.312-.456-.115-.615-.408-.535-.48.08-.07.175.21.519.237s.96-.219 1.71.173c.748.392 1.449.055 2.307.448l-.128-.05-4-1.836s-.076-.03-.09-.084l.004-.044c.033-.079.151-.03.151-.03L4.68 5.776l-.14-.135c-.424-.369-.837-.389-1.322-.866l-.164-.178c-.669-.786-1.016-.633-1.394-.914-.378-.28-.411-.612-.31-.648.1-.035.081.262.389.417.307.156.97.166 1.512.814.542.65 1.319.606 1.96 1.297l-.097-.093L2.12 2.24s-.058-.058-.05-.112l.02-.039c.06-.06.15.03.15.03l3.085 2.86-.078-.178c-.25-.502-.624-.678-.889-1.305l-.084-.227c-.317-.982-.696-.974-.938-1.378-.241-.404-.146-.723-.039-.717s-.024.273.2.534.834.524 1.086 1.331.986 1.064 1.315 1.948l-.057-.13L4.313.735S4.28.66 4.309.612l.034-.028c.079-.033.128.086.128.086l1.755 3.824-.004-.196c-.04-.56-.317-.866-.322-1.547l.01-.241c.082-1.028-.271-1.167-.34-1.632-.068-.465.142-.724.24-.678.096.047-.127.243-.02.57.107.328.57.804.494 1.646s.504 1.36.47 2.303l-.004-.138.166-4.397s0-.082.043-.115Zm2.367 7.197-.921.035.759.348zM5.206 5.568l-.296.292.864.32zm.684-.578-.385.157.676.627zm.336-.495-.019.22.12.002.386.838.03-.836-.415-.002z"/><path fill="color(display-p3 0.522 0.204 0.039)" d="m9.594 8.397.062.045c.105.072.199.124.38.216.43.218.611.337.872.62l.08.09c.368.431.57.557 1.011.718.124.046.194.076.272.12q.053.03.102.067c.35.261.497.675.296.745-.055.02-.097-.006-.13-.057l-.05-.097-.03-.054a.5.5 0 0 0-.222-.212 1 1 0 0 0-.197-.073l-.192-.056a4 4 0 0 1-.218-.07 2.2 2.2 0 0 1-.482-.234 2 2 0 0 1-.442-.395c-.215-.257-.427-.39-.893-.604a9 9 0 0 1-.403-.193l-.082-.045 2.591 2.792.021.024.012.017a.2.2 0 0 1 .035.1.12.12 0 0 1-.037.089.12.12 0 0 1-.089.037.2.2 0 0 1-.1-.035.3.3 0 0 1-.04-.031L8.836 9.238l.015.027c.059.103.129.2.223.315l.06.07.096.114c.276.323.422.558.549.95.09.28.19.491.302.659.103.153.137.188.377.41.119.11.189.19.253.297.225.375.2.814-.012.802-.08-.005-.096-.05-.104-.168-.01-.174-.033-.261-.123-.372l-.011-.014a3 3 0 0 0-.236-.208l-.094-.079a6 6 0 0 1-.223-.193 2 2 0 0 1-.544-.87c-.097-.311-.245-.523-.566-.87l-.117-.126q-.139-.149-.24-.275l-.027-.035 1.325 3.571.006.018.003.012q.01.037.01.074c-.002.054-.027.099-.08.12-.066.028-.124-.001-.166-.058a.3.3 0 0 1-.033-.056L7.839 9.77l.004.03c.015.118.043.235.086.377l.028.089.046.141c.13.404.176.677.143 1.088-.042.515.013.8.164 1.13l.067.146c.058.129.09.227.108.343.063.432-.126.828-.318.736-.048-.024-.063-.068-.053-.121a.4.4 0 0 1 .016-.058l.02-.063a.54.54 0 0 0 .008-.361 1.3 1.3 0 0 0-.095-.205l-.141-.261c-.207-.4-.3-.756-.26-1.202.027-.305-.024-.56-.164-.947l-.065-.176a7 7 0 0 1-.138-.404l-.012-.04-.142 3.804a.3.3 0 0 1-.006.052l-.008.03c-.02.06-.062.102-.127.102-.066 0-.108-.042-.128-.102a.3.3 0 0 1-.013-.08L6.716 9.88l-.009.03c-.03.11-.048.223-.063.359l-.007.084-.009.105c-.034.457-.078.68-.236 1.024l-.053.109c-.25.49-.297.749-.279 1.174.004.077.005.106.005.146 0 .113-.008.207-.033.306-.107.424-.433.717-.575.558-.041-.047-.031-.096.01-.15.01-.013.08-.092.1-.12a.52.52 0 0 0 .113-.29c.006-.079.002-.121-.025-.367-.062-.555-.03-.918.204-1.364.083-.158.136-.322.169-.504.028-.16.038-.29.048-.585.007-.189.016-.34.03-.47l.003-.034-1.587 3.46-.02.037-.014.021c-.043.057-.1.086-.167.058-.052-.022-.077-.067-.08-.12a.24.24 0 0 1 .02-.102l1.374-3.691-.032.04-.045.062a3 3 0 0 0-.216.38c-.218.43-.337.611-.62.872l-.09.08c-.431.368-.557.57-.718 1.011a1.6 1.6 0 0 1-.12.272q-.03.053-.067.102c-.261.35-.675.497-.745.296-.02-.055.006-.097.057-.13-.008.005.16-.08.214-.122a.5.5 0 0 0 .149-.18c.024-.049.046-.109.073-.197l.056-.192c.024-.083.046-.15.07-.218.062-.177.136-.333.234-.482a2 2 0 0 1 .395-.442c.257-.215.39-.427.604-.893a9 9 0 0 1 .193-.403l.045-.082L2.28 11.92l-.024.021-.017.012a.2.2 0 0 1-.1.035.12.12 0 0 1-.089-.037.12.12 0 0 1-.037-.089q.001-.053.035-.1a.3.3 0 0 1 .031-.04l2.683-2.885-.027.015c-.103.059-.2.129-.315.223l-.07.06-.114.096c-.323.276-.558.422-.95.549a2.6 2.6 0 0 0-.659.302c-.153.103-.188.137-.41.377-.11.119-.19.189-.297.253-.375.225-.814.2-.802-.012.005-.08.05-.096.168-.104.174-.01.261-.033.372-.123l.014-.011c.068-.059.38-.449.48-.553.243-.253.517-.433.87-.544.311-.097.523-.245.87-.566l.126-.117q.149-.138.275-.24l.034-.027L.757 9.74l-.018.006-.012.003a.3.3 0 0 1-.074.01C.6 9.756.554 9.73.533 9.678c-.028-.066.001-.124.058-.166a.3.3 0 0 1 .056-.033L4.214 7.84l-.015.002a2.3 2.3 0 0 0-.376.086l-.089.028-.141.046c-.404.13-.677.176-1.088.143-.515-.042-.8.013-1.13.164l-.146.067a1.2 1.2 0 0 1-.343.108c-.432.063-.828-.126-.736-.318.024-.048.068-.063.121-.053a.4.4 0 0 1 .058.016l.063.02a.54.54 0 0 0 .361.008c.054-.017.115-.046.205-.095l.222-.12.04-.021c.398-.207.755-.3 1.2-.26.306.027.562-.024.948-.164l.176-.065c.156-.058.286-.103.404-.138l.04-.012L.184 7.14a.3.3 0 0 1-.052-.006l-.03-.008C.042 7.107 0 7.065 0 7c0-.066.042-.108.102-.128a.3.3 0 0 1 .08-.013l3.936-.143-.029-.009a2 2 0 0 0-.358-.063l-.084-.007-.105-.009c-.457-.034-.68-.078-1.024-.236l-.109-.053c-.49-.25-.749-.297-1.174-.279l-.146.005a1.2 1.2 0 0 1-.306-.033C.36 5.925.066 5.599.225 5.457c.047-.041.096-.031.15.01.013.01.092.08.12.1a.52.52 0 0 0 .29.113c.079.006.121.002.367-.025.555-.062.918-.03 1.364.204.158.083.322.136.504.169.16.028.29.038.585.048.189.007.34.016.47.03l.034.003-3.46-1.587-.037-.02-.021-.014c-.057-.043-.086-.1-.058-.167.022-.052.067-.077.12-.08a.24.24 0 0 1 .102.02l3.677 1.363-.026-.021-.062-.045a3 3 0 0 0-.38-.216c-.43-.218-.611-.337-.872-.62l-.08-.09c-.368-.431-.57-.557-1.011-.718a1.6 1.6 0 0 1-.272-.12 1 1 0 0 1-.102-.067c-.35-.261-.497-.675-.296-.745.07-.024.108.011.15.092l.035.072c.06.117.13.196.248.256.048.024.108.046.196.073l.192.056c.083.024.15.046.218.07.177.062.333.136.482.234q.241.156.442.395c.215.257.427.39.893.604l.237.11.036.017.13.067.081.044-2.59-2.792-.021-.024-.012-.017a.2.2 0 0 1-.035-.1q0-.05.037-.089a.12.12 0 0 1 .089-.037q.053.001.1.035a.3.3 0 0 1 .04.031l2.878 2.67-.021-.038a2.5 2.5 0 0 0-.24-.327l-.054-.064-.105-.123a2.5 2.5 0 0 1-.478-.8l-.038-.11a2.6 2.6 0 0 0-.302-.66c-.103-.153-.137-.188-.377-.41a1.3 1.3 0 0 1-.253-.297c-.225-.375-.2-.814.012-.802.08.005.096.05.104.168.01.174.033.261.123.372l.011.014c.059.068.449.38.553.48.253.243.433.517.544.87.097.311.245.523.566.87l.117.126q.138.149.24.275l.027.034L4.261.757 4.255.739 4.252.727a.3.3 0 0 1-.01-.074c.002-.054.027-.099.08-.12.066-.028.124.001.166.058a.3.3 0 0 1 .033.056l1.64 3.582-.004-.03a2.3 2.3 0 0 0-.086-.376l-.028-.089-.046-.141c-.13-.404-.176-.677-.143-1.088.042-.515-.013-.8-.164-1.13l-.067-.146a1.2 1.2 0 0 1-.108-.343c-.063-.432.126-.828.318-.736.048.024.063.068.053.121A.4.4 0 0 1 5.87.33l-.02.063a.54.54 0 0 0-.008.361c.017.054.046.115.095.205l.141.261c.207.4.3.756.26 1.202-.027.305.024.56.164.947l.065.176c.058.156.103.286.138.403l.011.041L6.86.184q0-.022.006-.052l.008-.03C6.893.042 6.935 0 7 0c.066 0 .108.042.128.102q.014.048.013.08l.143 3.935.009-.028c.03-.11.048-.222.063-.358l.007-.084.009-.105c.034-.457.078-.68.236-1.024l.053-.109c.25-.49.297-.749.279-1.174l-.005-.146a1.2 1.2 0 0 1 .033-.306c.107-.424.433-.717.575-.558.041.047.031.096-.01.15l-.037.044-.036.043-.028.034a.5.5 0 0 0-.112.29c-.004.061-.003.1.01.234l.01.082.005.05c.062.555.03.918-.204 1.364a1.7 1.7 0 0 0-.169.504c-.028.16-.038.29-.048.585-.007.188-.016.34-.03.47l-.003.034L9.478.649l.02-.037.014-.021c.043-.057.1-.086.167-.058.052.022.077.067.08.12a.24.24 0 0 1-.02.102l-1.374 3.69.032-.04.045-.06c.072-.106.124-.2.216-.38.218-.431.337-.612.62-.873l.09-.08c.431-.368.557-.57.718-1.011l.002-.004.027-.074c.047-.119.092-.207.158-.296.261-.35.675-.497.745-.296.02.055-.006.097-.057.13l-.027.013a2 2 0 0 0-.187.109.5.5 0 0 0-.149.18 1 1 0 0 0-.073.197l-.056.192c-.024.083-.046.15-.07.218a2.2 2.2 0 0 1-.234.482 2 2 0 0 1-.395.442c-.257.215-.39.427-.604.893a9 9 0 0 1-.193.403l-.045.08 2.792-2.59.024-.02.017-.012a.2.2 0 0 1 .1-.035q.05 0 .089.037a.12.12 0 0 1 .037.089.2.2 0 0 1-.035.1.3.3 0 0 1-.031.04L9.237 5.165l.052-.03c.103-.06.202-.135.327-.239l.064-.054c.06-.053.092-.08.123-.105.266-.225.482-.36.8-.478l.11-.038a2.6 2.6 0 0 0 .66-.302c.153-.103.188-.137.41-.377.11-.119.19-.189.297-.253.375-.225.814-.2.802.012-.005.08-.05.096-.168.104-.174.01-.261.033-.372.123l-.014.011a3 3 0 0 0-.208.236l-.079.094a6 6 0 0 1-.193.223 2 2 0 0 1-.87.544c-.311.097-.523.245-.87.566l-.126.117q-.149.138-.275.24l-.034.027 3.57-1.325.018-.006.012-.003a.3.3 0 0 1 .074-.01c.054.002.099.027.12.08.028.066-.001.124-.058.166a.3.3 0 0 1-.056.033L9.784 6.16l.063-.009a2.5 2.5 0 0 0 .35-.085l.084-.027.085-.027c.405-.133.641-.18 1.012-.164l.117.007c.515.042.8-.013 1.13-.164l.146-.067a1.2 1.2 0 0 1 .343-.108c.432-.063.828.126.736.318-.024.048-.068.063-.121.053a.4.4 0 0 1-.058-.016l-.063-.02a.54.54 0 0 0-.361-.008 1.3 1.3 0 0 0-.205.095l-.261.141c-.4.207-.756.3-1.202.26-.305-.027-.56.024-.947.164l-.176.065a7 7 0 0 1-.403.138l-.042.011 3.805.143q.022 0 .052.006l.03.008c.06.02.102.062.102.127 0 .066-.042.108-.102.128a.3.3 0 0 1-.08.013l-3.923.147.016.005c.11.03.222.048.358.063l.084.007.105.009c.457.034.68.078 1.024.236l.109.053c.49.25.749.297 1.174.279a3 3 0 0 1 .146-.005c.113 0 .207.008.306.033.424.107.717.433.558.575-.047.041-.096.031-.15-.01-.013-.01-.092-.08-.12-.1a.52.52 0 0 0-.29-.113c-.079-.006-.121-.002-.367.025-.555.062-.918.03-1.364-.204a1.7 1.7 0 0 0-.504-.169 4 4 0 0 0-.585-.048 7 7 0 0 1-.47-.03l-.033-.003 3.46 1.587q.015.006.036.02l.021.014c.057.043.086.1.058.167-.022.052-.067.077-.12.08a.24.24 0 0 1-.102-.02l-3.69-1.373zm-2.929.283-.227.496.25.106zm.669 0-.02.545.27.002zm-1.286-.256-.4.371.19.194zm1.903 0 .19.513.252-.103zm-2.376-.472-.512.19.103.25zm2.85 0 .37.4.194-.19zm-3.651-.639-.002.272.547-.251zm4.507-.002-.6.023.495.228zm-4.458-.873-.105.25.6-.023zm3.857.228.545.02.002-.271zm.154-1.06-.41.442.512-.19zm-3.63.041-.193.191.564.21zm.654-.584-.251.103.44.409zm2.303-.052-.209.564.4-.371zm-1.747-.239.252.547.02-.545zm.897-.054.023.6.228-.495zm-6.08 5.998c.023.07.333.078.632-.1.097-.058.169-.122.272-.234.23-.246.268-.284.43-.393.177-.12.398-.223.687-.316.376-.121.599-.26.912-.527l.113-.097c.228-.194.386-.302.612-.397l.05-.015.143-.154-.143-.353-.022-.053.054-.02.784-.29.218-.082-.158.171-.603.65.032.08.024.058-.06.016a2 2 0 0 0-.191.06l.004-.007-2.862 3.086-.019.023a.1.1 0 0 0-.016.04q0 .004.005.009.004.006.01.005.014 0 .039-.017l.025-.02 3.195-2.964.079.078a2.5 2.5 0 0 0-.397.597 9 9 0 0 0-.145.31c-.22.48-.36.703-.634.931a1.9 1.9 0 0 0-.373.418c-.092.14-.163.29-.223.458a4 4 0 0 0-.068.213l-.056.192a1.3 1.3 0 0 1-.08.215.6.6 0 0 1-.18.218 2 2 0 0 1-.23.132l.002.005c.048.051.308-.046.511-.293l.033-.042a1 1 0 0 0 .06-.092c.041-.07.07-.136.112-.254.168-.458.303-.676.75-1.056l.09-.08c.269-.248.381-.42.594-.84.093-.185.147-.282.224-.392q.09-.131.207-.251l.049-.041.073-.197-.268-.271-.04-.04.042-.04.613-.569.171-.158-.081.218-.308.832.06.06.044.045-.05.039q-.086.066-.158.133l.001-.001-1.458 3.934-.002.006-.003.01a.1.1 0 0 0-.006.04q0 .02.01.022.013.008.036-.022a.2.2 0 0 0 .02-.035l1.82-3.964.102.043c-.108.296-.136.52-.154 1.013-.01.3-.02.433-.05.6a1.8 1.8 0 0 1-.18.537c-.22.422-.251.765-.192 1.3.029.255.032.298.025.387a.63.63 0 0 1-.134.348c-.024.033-.094.113-.1.121l-.01.012.003.004c.064.029.268-.161.36-.466l.015-.052c.022-.09.03-.174.03-.278v-.037l-.005-.105c-.02-.443.03-.721.29-1.229l.052-.106c.152-.328.193-.54.227-.985l.005-.071.003-.035c.023-.272.059-.458.145-.673l.03-.056-.008-.21-.351-.148-.053-.023.024-.052.349-.76.097-.212.009.233.033.886.079.034.058.024-.032.055a2 2 0 0 0-.095.183l.001-.001.158 4.192q0 .011.003.03l.005.017q.009.028.022.026c.013-.002.015-.006.022-.026a.2.2 0 0 0 .008-.049l.163-4.358h.11c.014.306.076.536.234.96l.066.178c.144.4.199.67.17.995-.038.422.05.759.247 1.14.034.065.148.272.141.26.051.095.083.161.103.223.05.153.04.28-.007.43l-.015.045-.007.019-.012.042v.003l.003.001c.07.004.187-.251.155-.57l-.006-.052a1.1 1.1 0 0 0-.1-.313l-.066-.145c-.159-.348-.217-.651-.174-1.186.032-.394-.01-.653-.138-1.045l-.046-.141a2.2 2.2 0 0 1-.133-.718l.006-.052-.088-.191-.38-.002h-.058l.002-.058.032-.836.008-.233.098.212.37.806h.085l.063.001-.008.063q-.014.104-.017.198l-.006-.006 1.756 3.825q.005.012.02.033.022.03.035.023.01-.002.01-.023a.14.14 0 0 0-.01-.058L8.117 9.195l.102-.043c.124.264.272.461.543.754l.116.126c.332.359.488.582.591.912.105.335.275.593.515.824.039.038.126.11.22.19l.095.08a3 3 0 0 1 .258.234c.108.133.136.24.148.435.004.058.006.064 0 .064.08.004.097-.321-.09-.634a1.2 1.2 0 0 0-.234-.272c-.246-.23-.284-.268-.393-.43a2.7 2.7 0 0 1-.316-.687c-.121-.376-.26-.599-.527-.912l-.097-.113c-.194-.228-.302-.386-.398-.612l-.014-.05-.154-.144-.353.144-.053.022-.02-.054-.29-.785-.082-.218.171.158.65.604.08-.032.058-.024.016.06q.027.102.06.19l-.007-.003 3.086 2.862.023.019q.025.015.04.016.004 0 .009-.005.006-.004.005-.01a.1.1 0 0 0-.017-.039l-.02-.025-2.965-3.195.079-.08c.171.158.357.278.597.398.083.041.117.057.31.145.48.22.703.36.931.634q.19.226.418.373c.14.092.29.163.458.223.066.023.131.044.213.068l.192.056c.094.028.16.052.215.08a.6.6 0 0 1 .218.18 2 2 0 0 1 .132.23l.005-.002c.051-.048-.046-.308-.293-.511l-.042-.033a1 1 0 0 0-.092-.06 1.5 1.5 0 0 0-.254-.112c-.458-.168-.676-.303-1.056-.75l-.08-.09c-.248-.269-.42-.381-.84-.594a3 3 0 0 1-.392-.224 2 2 0 0 1-.251-.207l-.041-.05-.197-.072-.27.268-.042.04-.039-.042-.568-.613-.159-.171.219.08.831.309.06-.06.045-.044.039.05q.067.086.133.157l-.002-.001 3.935 1.46.006.001.01.003a.1.1 0 0 0 .04.006q.02 0 .022-.01.008-.014-.022-.036a.2.2 0 0 0-.035-.02L9.345 7.762l.042-.103c.296.107.52.135 1.012.153.3.01.433.02.6.05a1.8 1.8 0 0 1 .537.18c.422.22.765.251 1.3.192.255-.029.298-.032.387-.025.137.01.247.057.348.134.033.024.113.094.121.1l.012.01v.002l.004-.005c.029-.064-.161-.268-.466-.36l-.052-.015a1 1 0 0 0-.278-.03h-.037l-.105.005c-.443.02-.721-.03-1.229-.29l-.106-.052c-.328-.152-.54-.193-.985-.227l-.106-.008a2.2 2.2 0 0 1-.673-.145L9.6 7.3l-.197.008-.147.35-.023.054-.052-.024-.76-.349-.212-.097.234-.009.885-.033.034-.079.024-.058.055.032q.094.054.182.094h-.001l4.193-.158q.011 0 .03-.003l.017-.005q.028-.009.026-.022c-.002-.013-.006-.015-.026-.022a.2.2 0 0 0-.049-.008l-4.356-.163v-.111c.305-.014.534-.076.959-.233l.177-.066c.4-.144.67-.199.995-.17.422.038.759-.05 1.14-.247l.09-.048.055-.03.115-.063c.095-.051.161-.083.223-.103a.65.65 0 0 1 .442.011l.033.011.019.007.042.012h.003l.001-.003c.004-.07-.251-.187-.57-.155l-.052.006a1.1 1.1 0 0 0-.313.1l-.145.066c-.348.159-.651.217-1.185.174l-.114-.007c-.354-.015-.579.03-.972.158l-.086.028c-.297.097-.483.136-.733.138l-.063-.001-.18.082-.002.381v.058L9.278 6.8l-.835-.031-.233-.009.211-.097.806-.37v-.085l.001-.063.063.008q.104.014.197.017h.006l3.814-1.75.02-.01.013-.01c.021-.015.026-.026.023-.035-.003-.007-.008-.01-.023-.01a.14.14 0 0 0-.058.01L9.197 5.882l-.043-.102c.263-.123.46-.271.752-.542l.126-.116c.359-.332.582-.488.912-.591.335-.105.593-.275.824-.515.094-.097.41-.494.488-.56l.016-.013c.133-.108.24-.136.435-.148.041-.003.056-.005.061-.003h.002v-.007c-.023-.067-.305-.078-.59.076l-.043.024a1.2 1.2 0 0 0-.272.234l-.043.046-.074.079c-.132.14-.183.18-.313.268a2.7 2.7 0 0 1-.686.316l-.108.037c-.304.112-.51.24-.766.458l-.123.104c-.252.216-.406.323-.64.423l-.051.013-.144.154.144.353.022.054-.054.02-.784.29-.219.081.159-.17.603-.65-.032-.08-.024-.058.06-.016q.102-.027.19-.06l-.003.007L11.841 2.2l.019-.023a.1.1 0 0 0 .016-.04q0-.004-.005-.009-.004-.005-.01-.005a.1.1 0 0 0-.039.017l-.025.02-3.195 2.964-.079-.078a2.5 2.5 0 0 0 .407-.617l.018-.037c.026-.053.051-.108.117-.253.22-.48.36-.703.634-.931a1.9 1.9 0 0 0 .373-.418c.092-.14.163-.29.223-.458a4 4 0 0 0 .068-.213l.056-.192a1.3 1.3 0 0 1 .08-.215.6.6 0 0 1 .18-.218 2 2 0 0 1 .23-.132l-.002-.005c-.048-.051-.308.046-.511.293l-.033.042c-.06.08-.101.16-.144.27l-.027.072-.001.004c-.168.458-.303.676-.75 1.056l-.09.08c-.269.248-.381.42-.594.84a3 3 0 0 1-.224.392c-.061.089-.128.17-.207.251l-.049.041-.073.197.268.27.04.041-.042.04-.613.568-.171.158.081-.218.308-.831-.06-.06-.044-.045.05-.039q.086-.067.158-.133L9.636.714l.002-.006.003-.01a.1.1 0 0 0 .006-.04q0-.02-.01-.022Q9.623.628 9.6.658a.2.2 0 0 0-.02.035L7.762 4.655l-.103-.042c.107-.296.135-.52.153-1.012.01-.3.02-.433.05-.6a1.8 1.8 0 0 1 .18-.537c.22-.422.251-.765.192-1.3C8.206.91 8.203.866 8.21.777a.63.63 0 0 1 .134-.348c.024-.033.094-.113.1-.121l.01-.012h.002L8.45.292c-.064-.029-.268.161-.36.466L8.075.81c-.022.09-.03.174-.03.278v.037l.005.105c.02.443-.03.721-.29 1.229l-.052.106c-.152.328-.193.54-.227.985l-.005.071-.003.035a2.2 2.2 0 0 1-.145.673l-.03.056.008.21.35.148.054.022-.024.052-.349.76-.097.212-.009-.233L7.2 4.67l-.079-.033-.058-.024.032-.055q.054-.094.094-.182L7.03.184q0-.011-.003-.03L7.022.138C7.016.117 7.01.111 7 .111s-.015.006-.022.026a.2.2 0 0 0-.008.049l-.163 4.356h-.111c-.014-.305-.076-.534-.233-.959l-.066-.177c-.144-.4-.199-.67-.17-.995.038-.422-.05-.759-.247-1.14l-.141-.26a1.4 1.4 0 0 1-.103-.223.65.65 0 0 1 .007-.43l.015-.045.007-.019.012-.042V.249L5.774.248c-.07-.004-.187.251-.155.57l.006.052c.016.104.045.193.1.313l.066.145c.159.348.217.651.174 1.186-.032.394.01.653.138 1.045l.046.141c.092.285.131.473.133.718l-.006.052.087.19.381.003h.058l-.002.058-.032.836-.009.233-.097-.212-.37-.807h-.148l.008-.063q.014-.104.017-.197l.006.005L4.419.691 4.4.658q-.022-.03-.035-.023c-.007.003-.01.008-.01.023a.14.14 0 0 0 .01.058l1.517 4.087-.102.043c-.123-.263-.271-.46-.542-.752l-.116-.126c-.332-.359-.488-.582-.591-.912a1.9 1.9 0 0 0-.515-.824 6 6 0 0 0-.22-.19l-.095-.08a3 3 0 0 1-.245-.218l-.013-.016c-.108-.133-.136-.24-.148-.435-.004-.058-.006-.064 0-.064-.08-.004-.097.321.09.634.058.097.122.169.234.272.246.23.284.268.393.43.12.177.223.398.316.686l.037.108c.112.304.24.51.458.766l.104.123c.216.252.323.406.423.64l.023.06.145.134.352-.143.054-.022.02.054.29.784.081.218-.17-.158-.65-.603-.08.032-.058.024-.016-.06a2 2 0 0 0-.06-.19l-.003-.006-3.076-2.853-.013-.011-.01-.008a.1.1 0 0 0-.04-.016q-.004 0-.009.005-.005.004-.005.01 0 .014.017.039.01.016.02.025l2.966 3.196-.079.08a2.5 2.5 0 0 0-.598-.399 9 9 0 0 0-.31-.145c-.48-.22-.703-.36-.931-.634a1.9 1.9 0 0 0-.418-.373 2 2 0 0 0-.458-.223 4 4 0 0 0-.213-.068l-.192-.056a1.3 1.3 0 0 1-.215-.08.65.65 0 0 1-.296-.305l-.036-.071a.2.2 0 0 1-.016-.035v-.002l-.007.005c-.051.048.046.308.293.511l.042.033q.045.033.092.06c.07.041.136.07.254.112.458.168.676.303 1.056.75l.08.09c.248.269.42.381.84.594.185.093.282.147.392.224.089.061.17.128.251.207l.052.053.186.069.27-.268.042-.04.039.042.568.613.159.171-.219-.081-.831-.308-.06.06-.045.044-.039-.05a2 2 0 0 0-.133-.158l.001.002-3.934-1.46-.006-.001-.01-.003a.1.1 0 0 0-.04-.006q-.02 0-.022.01-.008.013.022.036a.2.2 0 0 0 .035.02l3.962 1.819-.042.102c-.296-.107-.52-.135-1.012-.153a4 4 0 0 1-.6-.05 1.8 1.8 0 0 1-.537-.18c-.422-.22-.765-.251-1.3-.192-.255.029-.298.032-.387.025a.63.63 0 0 1-.348-.134c-.033-.024-.113-.094-.121-.1l-.012-.01-.004.003c-.029.064.161.268.466.36l.052.015c.09.022.174.03.278.03h.037l.105-.005c.443-.02.721.03 1.229.29l.106.052c.328.152.54.193.985.227l.071.005.035.003c.272.023.458.059.673.145l.056.03.21-.008.148-.351.022-.053.053.024.76.349.211.097-.233.009-.886.033-.033.079-.024.058-.055-.032a2 2 0 0 0-.183-.095L.184 6.97q-.011 0-.03.003l-.017.005Q.109 6.986.111 7c.002.014.006.015.026.022a.2.2 0 0 0 .049.008l4.356.163v.111c-.305.014-.534.076-.959.233l-.143.053-.011.004-.023.009c-.4.144-.67.199-.995.17-.422-.038-.759.05-1.14.247-.065.034-.272.148-.26.141a1.4 1.4 0 0 1-.223.103.65.65 0 0 1-.43-.007l-.064-.022-.042-.012H.249l-.001.003c-.004.07.251.187.57.155l.052-.006c.104-.016.193-.045.313-.1l.145-.066c.348-.159.651-.217 1.186-.174.394.032.653-.01 1.045-.138l.141-.046c.285-.092.473-.131.717-.133h.064l.18-.082.002-.38v-.058l.058.002.835.032.233.009-.212.097-.806.37v.148l-.063-.008a2 2 0 0 0-.198-.017h-.006L.691 9.58l-.02.01-.013.01q-.03.022-.023.035c.003.007.008.01.023.01a.14.14 0 0 0 .058-.01l4.087-1.517.043.102c-.264.123-.46.271-.752.542l-.126.116c-.359.332-.582.488-.912.591a1.9 1.9 0 0 0-.824.515c-.094.097-.41.494-.488.56l-.016.013c-.133.108-.24.136-.435.148-.058.004-.064.006-.064 0z"/><path fill="color(display-p3 0.522 0.204 0.039)" d="m7.004 2.312.144 3.96 1.65-3.602-1.383 3.714 2.902-2.696L7.62 6.59l3.713-1.38-3.604 1.648 3.96.146-3.963.143 3.605 1.65-3.717-1.383 2.7 2.903-2.905-2.699 1.383 3.714-1.65-3.604-.145 3.96-.145-3.96-1.648 3.602 1.382-3.717-2.902 2.7L6.38 7.407 2.668 8.791 6.27 7.14l-3.958-.145 3.96-.145L2.67 5.203l3.715 1.381-2.697-2.901L6.59 6.38 5.21 2.668l1.648 3.604zm.427 7.129.176.01c-.03.963.503 1.469.282 2.121.1-.825-.413-1.226-.458-2.131m-.967-.02.159.075c-.397.879-.097 1.55-.552 2.068.41-.723.088-1.29.393-2.144m2.034-.39c.341.903 1.028 1.166 1.073 1.853-.223-.8-.85-.975-1.239-1.794Zm-2.92 0 .118.13c-.702.66-.683 1.396-1.3 1.7.654-.512.575-1.158 1.183-1.83m3.584-.727c.66.702 1.395.683 1.7 1.3-.513-.654-1.159-.575-1.831-1.183Zm-4.252.028.058.166c-.902.341-1.165 1.028-1.852 1.073.8-.223.975-.85 1.794-1.239m-.35-.901-.01.176c-.964-.03-1.47.503-2.122.282.825.1 1.226-.413 2.131-.458m4.936-.054c.879.397 1.55.097 2.068.552-.723-.41-1.29-.088-2.144-.393ZM2.436 6.07c.723.41 1.29.088 2.144.393l-.076.159c-.879-.397-1.55-.097-2.068-.552m7.014.322c.964.03 1.47-.503 2.122-.282-.825-.1-1.226.413-2.131.458ZM3.138 4.395c.513.655 1.159.576 1.831 1.184l-.13.117c-.66-.702-1.396-.683-1.7-1.3m7.746.034c-.8.223-.975.85-1.794 1.239l-.058-.166c.902-.341 1.165-1.028 1.852-1.073m-1.28-1.29c-.654.512-.575 1.158-1.183 1.83l-.117-.13c.702-.66.683-1.396 1.3-1.7M4.43 3.115c.223.8.85.975 1.239 1.794l-.166.058c-.341-.902-1.028-1.165-1.073-1.852m3.5-.68c-.41.723-.088 1.29-.393 2.144l-.159-.076c.397-.879.097-1.55.552-2.068m-1.82-.007c-.1.825.413 1.226.458 2.131l-.176-.01c.03-.963-.503-1.469-.282-2.121"/><circle cx="7" cy="7" r="2.778" fill="color(display-p3 0.965 0.706 0.055)"/><path fill="color(display-p3 0.522 0.204 0.039)" d="M7 4.147a2.853 2.853 0 1 1 0 5.706 2.853 2.853 0 0 1 0-5.706m0 .15a2.703 2.703 0 1 0 0 5.406 2.703 2.703 0 0 0 0-5.406"/><path fill="color(display-p3 0.522 0.204 0.039)" d="M7.45 7.384a.193.193 0 1 1-.194.3.4.4 0 0 1-.231.062H7a.4.4 0 0 1-.231-.062.192.192 0 1 1-.194-.3.13.13 0 0 0-.084.122.128.128 0 0 0 .256.006c.02.042.103.166.266.172a.32.32 0 0 0 .265-.172.128.128 0 0 0 .256-.006.13.13 0 0 0-.084-.122m1.302-.982c-.491-.427-1.111-.491-1.453-.17a.84.84 0 0 0-.16.356c-.042.243.034.506.224.776a.16.16 0 0 0-.085.042 1.52 1.52 0 0 1-.174-.974q.022-.124.067-.244c.47-.384 1.11-.427 1.58.214m-1.898-.214q.046.12.067.244a1.52 1.52 0 0 1-.174.974.16.16 0 0 0-.085-.042c.19-.27.266-.533.223-.776a.84.84 0 0 0-.159-.357c-.342-.32-.962-.256-1.453.171.47-.641 1.111-.598 1.581-.214m1.093.218c.19 0 .39.102.528.287a.8.8 0 0 1-.17.12q.088-.029.19-.069c-.362.278-.726.256-.94.128s-.213-.17-.17-.17c.029 0 .057.019.126.058l-.042-.04a.53.53 0 0 1 .478-.314m-1.918 0c.19 0 .39.102.528.287a.8.8 0 0 1-.348.188.6.6 0 0 0 .175-.052c.17-.085.214-.128.256-.128s.043.043-.17.171-.578.15-.941-.128l.08.03-.058-.053a.53.53 0 0 1 .478-.315m2.044.069q.059.06.06.14a.192.192 0 1 1-.338-.127.46.46 0 0 0-.239.233c.214.212.555.237.77-.055-.02-.08-.123-.16-.253-.191m-2.151 0-.04.013a.46.46 0 0 0-.244.233.6.6 0 0 0 .179.12q.122.033.221.04a.49.49 0 0 0 .369-.215c-.016-.07-.1-.141-.21-.179a.192.192 0 1 1-.276-.012m1.077 1.756c.129 0 .214-.084.641.044l-.006-.002.072.002c-.404.039-.272.25-.584.293L7 8.575c-.473 0-.257-.257-.706-.3q.044-.004.081-.003a1.3 1.3 0 0 1 .337-.066c.14-.006.204.025.284.025Zm.632.042c-.377-.082-.462.045-.632.045-.174 0-.259-.129-.643-.043l.015-.004c.33-.003.285.182.51.228l.116.01c.388 0 .24-.277.71-.234Zm-.246.693a.385.385 0 0 0-.77 0 .395.395 0 0 1 .77 0"/></g></g></svg>