<svg xmlns="http://www.w3.org/2000/svg" width="48" height="48" viewBox="0 0 48 48"><g fill="none" fill-rule="evenodd"><circle cx="24" cy="24" r="24" fill="color(display-p3 0.847 0.847 0.847)"/><g fill-rule="nonzero"><path fill="color(display-p3 0.133 0.620 0.271)" d="M0 0h48v48H0z"/><path fill="color(display-p3 0.973 0.898 0.035)" d="m43.267 24.017-19.294-12.48-19.24 12.51L24.09 36.463z"/><path fill="color(display-p3 0.169 0.286 0.639)" d="M32.445 24c0 4.474-3.632 8.1-8.113 8.1S16.22 28.474 16.22 24c0-4.473 3.633-8.1 8.113-8.1 4.481 0 8.113 3.627 8.113 8.1"/><path fill="color(display-p3 1.000 1.000 0.937)" stroke="color(display-p3 1.000 1.000 1.000)" stroke-width=".25" d="m27.102 30.228-.25-.144-.26.129.058-.29-.201-.212.287-.033.135-.26.12.268.284.052-.213.2zm-5.436-1.376-.251-.145-.26.13.058-.29-.201-.212.287-.034.135-.26.12.269.284.052-.212.199zm3.093-.823-.217-.124-.225.11.05-.25-.173-.183.248-.029.117-.224.104.232.245.044-.184.173zm5.49-.79-.212-.123-.221.11.05-.246-.171-.18.244-.029.114-.22.103.228.24.043-.18.17zm-11.478-.817-.251-.144-.26.129.058-.29-.201-.211.287-.034.135-.26.12.269.284.051-.212.2zm5.657-1.64.12.268.285.052-.213.199.04.291-.25-.145-.261.13.058-.29-.201-.212.287-.033zm-2.994-.791.12.268.284.052-.212.2.04.29-.251-.144-.26.129.058-.29-.201-.212.287-.033zm-3.469-.912-.25-.145-.26.13.058-.29-.202-.212.288-.033.135-.26.12.268.284.052-.213.199zm9.13-1.899-.23-.135-.24.12.054-.27-.184-.199.263-.032.125-.243.11.252.26.048-.194.187z"/><path fill="color(display-p3 1.000 1.000 1.000)" d="M31.91 26.914c.125-.323.284-.811.369-1.259-4.309-3.785-9.113-5.724-15.182-5.325a8 8 0 0 0-.54 1.327c7.193-.686 12.464 2.498 15.354 5.257"/></g></g></svg>