<svg xmlns="http://www.w3.org/2000/svg" width="48" height="48" viewBox="0 0 48 48"><g fill="none" fill-rule="evenodd"><circle cx="24" cy="24" r="24" fill="color(display-p3 0.847 0.847 0.847)"/><path fill="color(display-p3 1.000 1.000 1.000)" d="M0 0h48v48H0z"/><path fill="color(display-p3 0.835 0.169 0.118)" d="M38 0h10v48H38zM0 0h10v48H0z"/><path fill="color(display-p3 0.835 0.169 0.118)" fill-rule="nonzero" d="m24.58 37-.29-5.568a.613.613 0 0 1 .716-.632l5.542.974-.748-2.064a.42.42 0 0 1 .129-.471L36 24.323l-1.368-.64a.42.42 0 0 1-.22-.509l1.2-3.69-3.496.742a.42.42 0 0 1-.47-.245l-.678-1.594-2.73 2.93a.42.42 0 0 1-.715-.369l1.316-6.787-2.11 1.22a.42.42 0 0 1-.587-.175L24 11l-2.142 4.206a.42.42 0 0 1-.587.175l-2.11-1.22 1.316 6.787a.42.42 0 0 1-.716.368l-2.729-2.929-.677 1.594a.42.42 0 0 1-.471.245l-3.497-.742 1.2 3.69a.42.42 0 0 1-.22.51L12 24.323l6.071 4.916a.42.42 0 0 1 .129.47l-.748 2.065 5.542-.974a.613.613 0 0 1 .716.632L23.42 37z"/></g></svg>