<svg xmlns="http://www.w3.org/2000/svg" width="48" height="48" viewBox="0 0 48 48"><g fill="none" fill-rule="evenodd"><circle cx="24" cy="24" r="24" fill="color(display-p3 0.847 0.847 0.847)"/><path fill="color(display-p3 0.071 0.533 0.027)" d="M0 0h48v48H0z"/><path fill="color(display-p3 1.000 1.000 1.000)" d="M0 16h48v16H0z"/><path fill="color(display-p3 1.000 0.600 0.200)" d="M0 0h48v16H0z"/><path fill="color(display-p3 0.000 0.000 0.533)" fill-rule="nonzero" d="M24 16.6a7.4 7.4 0 1 1 0 14.8 7.4 7.4 0 0 1 0-14.8m.13 8.673-.051.002.161 1.285L24 30.4q.282 0 .557-.024a.28.28 0 0 1 .556-.067q.556-.105 1.077-.293a.28.28 0 0 1 .518-.21c.336-.163.66-.35.963-.563a.28.28 0 0 1 .447-.336q.423-.366.785-.793a.28.28 0 0 1 .345-.44q.314-.46.554-.969a.28.28 0 0 1 .218-.515q.185-.52.284-1.079a.28.28 0 0 1 .078-.553q.017-.276.018-.558t-.024-.557a.28.28 0 0 1-.067-.556 7 7 0 0 0-.293-1.077.28.28 0 0 1-.21-.518 7 7 0 0 0-.563-.963.28.28 0 0 1-.336-.447 7 7 0 0 0-.793-.785.28.28 0 0 1-.44-.345 7 7 0 0 0-.969-.554.28.28 0 0 1-.515-.218 7 7 0 0 0-1.079-.284.28.28 0 0 1-.553-.078q-.276-.017-.558-.018l.24 3.84-.16 1.282.05.005.123.018.178-1.28 1.225-3.647-.762 3.771-.486 1.198q.084.027.16.066l.504-1.19 2.128-3.206-1.712 3.446-.78 1.03.054.039.085.068.793-1.02 2.885-2.545-2.545 2.885-1.02.793.028.033q.042.051.078.105l1.031-.779 3.446-1.712-3.206 2.128-1.19.503q.039.078.067.161l1.197-.486 3.77-.762-3.646 1.225-1.28.178.018.122.002.05 1.285-.159 3.84.24-3.84.24-1.282-.16-.005.05-.018.123 1.28.178 3.647 1.225-3.771-.762-1.198-.486q-.027.084-.066.16l1.19.504 3.206 2.128-3.446-1.712-1.03-.78-.08.106-.027.033 1.02.793 2.545 2.885-2.885-2.545-.793-1.02-.033.028a1 1 0 0 1-.105.078l.779 1.031 1.712 3.446-2.128-3.206-.503-1.19a1 1 0 0 1-.161.067l.486 1.197.762 3.77-1.225-3.646-.178-1.28zM24 17.6q-.282 0-.557.024a.28.28 0 0 1-.556.067q-.556.105-1.077.293a.28.28 0 0 1-.518.21c-.336.163-.66.35-.963.563a.28.28 0 0 1-.447.336 7 7 0 0 0-.785.793.28.28 0 0 1-.345.44q-.314.46-.554.969a.28.28 0 0 1-.218.515 7 7 0 0 0-.284 1.079c.151.021.256.16.236.312a.28.28 0 0 1-.314.241q-.017.276-.018.558t.024.557a.28.28 0 0 1 .067.556q.105.556.293 1.077a.28.28 0 0 1 .21.518c.163.336.35.66.563.963a.28.28 0 0 1 .336.447q.366.423.793.785a.28.28 0 0 1 .44.345q.46.314.969.554a.28.28 0 0 1 .515.218q.52.185 1.079.284a.28.28 0 0 1 .553.078l.328.014.23.004-.24-3.84.16-1.282-.05-.005-.123-.018-.178 1.28-1.225 3.647.762-3.771.486-1.198a1 1 0 0 1-.16-.066l-.504 1.19-2.128 3.206 1.712-3.446.78-1.03-.106-.08-.033-.027-.793 1.02-2.885 2.545 2.545-2.885 1.02-.793-.028-.033a1 1 0 0 1-.078-.105l-1.031.779-3.446 1.712 3.206-2.128 1.19-.503a1 1 0 0 1-.067-.161l-1.197.486-3.77.762 3.646-1.225 1.28-.178-.018-.122-.004-.052-1.283.161L17.6 24l3.84-.24 1.282.16.005-.05.018-.123-1.28-.178-3.647-1.225 3.771.762 1.198.486q.027-.084.066-.16l-1.19-.504-3.206-2.128 3.446 1.712 1.03.78.039-.054.068-.085-1.02-.793-2.545-2.885 2.885 2.545.793 1.02.033-.028q.051-.042.105-.078l-.779-1.031-1.712-3.446 2.128 3.206.503 1.19q.078-.039.161-.067l-.486-1.197-.762-3.77 1.225 3.646.178 1.28.122-.018.051-.004-.16-1.283z"/></g></svg>