<svg xmlns="http://www.w3.org/2000/svg" width="48" height="48" viewBox="0 0 48 48"><g fill="none" fill-rule="evenodd"><circle cx="24" cy="24" r="24" fill="color(display-p3 0.847 0.847 0.847)"/><path fill="color(display-p3 0.698 0.133 0.204)" d="M0 0h48v48H0z"/><path fill="color(display-p3 1.000 1.000 1.000)" fill-rule="nonzero" d="M79 40.505v4h-91v-4zm0-7.384v4h-91v-4zm0-7.385v4h-91v-4zm0-7.384v4h-91v-4zm0-7.385v4h-91v-4zm0-7.385v4h-91v-4z"/><path fill="color(display-p3 0.235 0.231 0.431)" fill-rule="nonzero" d="M-11.8.11h36v25.626h-36z"/><path fill="color(display-p3 1.000 1.000 1.000)" fill-rule="nonzero" d="m-8.967 1.108.867 2.671-2.268-1.65h2.803l-2.268 1.65zm0 5.169.867 2.672-2.268-1.652h2.803L-9.833 8.95zm0 5.17.867 2.67-2.268-1.65h2.803l-2.268 1.65zm0 5.168.867 2.672-2.268-1.651h2.803l-2.268 1.651zm0 5.17.867 2.671-2.268-1.65h2.803l-2.268 1.65zm3.034-18.093.866 2.672-2.268-1.651h2.803L-6.8 6.364zm0 5.17.866 2.671-2.268-1.65h2.803l-2.268 1.65zm0 5.169.866 2.672-2.268-1.652h2.803L-6.8 16.703zm0 5.169.866 2.672-2.268-1.651h2.803L-6.8 21.87zM-2.9 1.108l.866 2.671-2.268-1.65h2.804l-2.268 1.65zm0 5.169.866 2.672-2.268-1.652h2.804L-3.766 8.95zm0 5.17.866 2.67-2.268-1.65h2.804l-2.268 1.65zm0 5.168.866 2.672-2.268-1.651h2.804l-2.268 1.651zm0 5.17.866 2.671-2.268-1.65h2.804l-2.268 1.65zM.133 3.692 1 6.364l-2.268-1.651h2.803L-.733 6.364zm0 5.17L1 11.533l-2.268-1.65h2.803l-2.268 1.65zm0 5.169L1 16.703l-2.268-1.652h2.803l-2.268 1.652zm0 5.169L1 21.872l-2.268-1.651h2.803l-2.268 1.65zM3.167 1.108l.866 2.671-2.268-1.65h2.803L2.3 3.778zm0 5.169.866 2.672-2.268-1.652h2.803L2.3 8.95zm0 5.17.866 2.67-2.268-1.65h2.803L2.3 14.117zm0 5.168.866 2.672-2.268-1.651h2.803L2.3 19.287zm0 5.17.866 2.671-2.268-1.65h2.803L2.3 24.455zM6.2 3.692l.866 2.672-2.268-1.651h2.804L5.334 6.364zm0 5.17.866 2.671-2.268-1.65h2.804l-2.268 1.65zm0 5.169.866 2.672-2.268-1.652h2.804l-2.268 1.652zm0 5.169.866 2.672-2.268-1.651h2.804l-2.268 1.65zM9.233 1.108l.867 2.671-2.268-1.65h2.803l-2.268 1.65zm0 5.169.867 2.672-2.268-1.652h2.803L8.367 8.95zm0 5.17.867 2.67-2.268-1.65h2.803l-2.268 1.65zm0 5.168.867 2.672-2.268-1.651h2.803l-2.268 1.651zm0 5.17.867 2.671-2.268-1.65h2.803l-2.268 1.65zm3.034-18.093.866 2.672-2.268-1.651h2.803L11.4 6.364zm0 5.17.866 2.671-2.268-1.65h2.803l-2.268 1.65zm0 5.169.866 2.672-2.268-1.652h2.803L11.4 16.703zm0 5.169.866 2.672-2.268-1.651h2.803L11.4 21.87zM15.3 1.108l.866 2.671-2.268-1.65h2.804l-2.268 1.65zm0 5.169.866 2.672-2.268-1.652h2.804L14.434 8.95zm0 5.17.866 2.67-2.268-1.65h2.804l-2.268 1.65zm0 5.168.866 2.672-2.268-1.651h2.804l-2.268 1.651zm0 5.17.866 2.671-2.268-1.65h2.804l-2.268 1.65zm3.033-18.093.867 2.672-2.268-1.651h2.803l-2.268 1.651zm0 5.17.867 2.671-2.268-1.65h2.803l-2.268 1.65zm0 5.169.867 2.672-2.268-1.652h2.803l-2.268 1.652zm0 5.169.867 2.672-2.268-1.651h2.803l-2.268 1.65zm3.034-18.092.866 2.671-2.268-1.65h2.803L20.5 3.778zm0 5.169.866 2.672-2.268-1.652h2.803L20.5 8.95zm0 5.17.866 2.67-2.268-1.65h2.803l-2.268 1.65zm0 5.168.866 2.672-2.268-1.651h2.803L20.5 19.287zm0 5.17.866 2.671-2.268-1.65h2.803l-2.268 1.65z"/></g></svg>