<svg xmlns="http://www.w3.org/2000/svg" version="1.1" xmlns:xlink="http://www.w3.org/1999/xlink" width="100" height="100"><svg width="100" height="100" viewBox="0 0 100 100" fill="none" xmlns="http://www.w3.org/2000/svg">
<rect width="100" height="100" fill="#F5F5F5"></rect>
<rect width="100" height="100" fill="#150101"></rect>
<path d="M5.12299 73V31.69H16.496C19.284 31.69 21.698 31.996 23.738 32.608C25.778 33.22 27.359 34.325 28.481 35.923C29.637 37.487 30.215 39.714 30.215 42.604C30.215 44.304 30.079 45.817 29.807 47.143C29.535 48.469 29.025 49.625 28.277 50.611C27.563 51.563 26.526 52.362 25.166 53.008L30.827 73H21.392L16.853 54.487H14.252V73H5.12299ZM14.252 49.234H16.802C18.094 49.234 19.097 49.013 19.811 48.571C20.525 48.095 21.018 47.432 21.29 46.582C21.596 45.698 21.749 44.644 21.749 43.42C21.749 41.652 21.426 40.275 20.78 39.289C20.134 38.303 18.944 37.81 17.21 37.81H14.252V49.234ZM38.8687 73L33.8707 31.69H41.6227L44.0707 55.762L47.1817 31.741H53.2507L56.5147 55.609L59.0137 31.69H66.6637L61.7167 73H53.7607L50.2417 48.061L46.9267 73H38.8687ZM71.1142 73V31.69H81.5692C85.1732 31.69 87.9782 32.149 89.9842 33.067C91.9902 33.951 93.4012 35.362 94.2172 37.3C95.0332 39.204 95.4412 41.686 95.4412 44.746V59.74C95.4412 62.834 95.0332 65.367 94.2172 67.339C93.4012 69.277 91.9902 70.705 89.9842 71.623C88.0122 72.541 85.2412 73 81.6712 73H71.1142ZM80.2432 66.676H81.6712C83.0652 66.676 84.0682 66.472 84.6802 66.064C85.2922 65.656 85.6662 65.044 85.8022 64.228C85.9722 63.412 86.0572 62.392 86.0572 61.168V43.165C86.0572 41.941 85.9552 40.955 85.7512 40.207C85.5812 39.459 85.1902 38.915 84.5782 38.575C83.9662 38.235 82.9802 38.065 81.6202 38.065H80.2432V66.676Z" fill="white"></path>
</svg><style>@media (prefers-color-scheme: light) { :root { filter: none; } }
@media (prefers-color-scheme: dark) { :root { filter: none; } }
</style></svg>