<?xml version="1.0" encoding="UTF-8"?>
<svg width="546px" height="234px" viewBox="0 0 546 234" version="1.1" xmlns="http://www.w3.org/2000/svg" xmlns:xlink="http://www.w3.org/1999/xlink">
    <title>Shape</title>
    <g id="Page-1" stroke="none" stroke-width="1" fill="none" fill-rule="evenodd">
        <g id="Group" fill="#DCDCDC">
            <path d="M0,116.588028 C0,186.821278 47.0555108,233.175125 111.83782,233.175125 C151.212999,233.175125 180.914908,215.003614 217.305453,180.633497 L272.905796,128.127278 L328.277142,180.633497 C364.895519,215.003614 394.434358,233.175125 433.745708,233.175125 C498.528482,233.175125 545.583294,186.821278 545.583294,116.588028 C545.583294,46.1910106 498.528482,0 433.745708,0 C394.434358,0 364.895519,18.1723732 328.277142,52.5425599 L272.905796,105.048779 L217.305453,52.5425599 C180.914908,18.1723732 151.212999,0 111.83782,0 C47.0555108,0 0,46.1910106 0,116.588028 Z M17.9185442,116.588028 C17.9185442,57.2298705 58.0941378,17.7547527 111.83782,17.7547527 C145.215776,17.7547527 171.514429,34.4800722 204.30091,64.9553952 L260.391392,116.588028 L204.073544,168.220662 C171.28683,198.468387 145.052008,215.257536 111.83782,215.257536 C58.0941378,215.257536 17.9185442,175.946186 17.9185442,116.588028 Z M285.191903,116.588028 L341.283084,64.9553952 C374.069332,34.4800722 400.367751,17.7547527 433.745708,17.7547527 C487.553918,17.7547527 527.664308,57.2298705 527.664308,116.588028 C527.664308,175.946186 487.553918,215.257536 433.745708,215.257536 C400.53082,215.257536 374.297629,198.468387 341.509051,168.220662 L285.191903,116.588028 Z" id="Shape" fill-rule="nonzero"></path>
        </g>
    </g>
</svg>